<svg id="horison" xmlns="http://www.w3.org/2000/svg" width="1532.12" height="415" viewBox="0 0 766.06 207.5">
  <defs>
    <style>
      .cls-1 {
        fill: #28a987;
      }

      .cls-2 {
        fill: none;
        stroke: #28a987;
        stroke-linecap: round;
        stroke-linejoin: round;
        stroke-width: 24px;
      }

      .cls-3 {
        fill: #0b132b;
        fill-rule: evenodd;
      }
    </style>
  </defs>
  <circle id="Ellipse_631_copy" data-name="Ellipse 631 copy" class="cls-1" cx="186" cy="104.945" r="22.62"/>
  <circle class="cls-2" cx="186" cy="103.75" r="91.75"/>
  <path id="HORISON-2" data-name="HORISON" class="cls-3" d="M9290.66,3913.45V3786.83h-28.4v49.65h-50.54v-49.65H9183.5v126.62h28.22v-50.36h50.54v50.36h28.4Zm42.21-63.4c0-26.43,18.93-38.39,36.61-38.39,17.5,0,36.43,11.96,36.43,38.39s-18.93,38.22-36.43,38.22C9351.8,3888.27,9332.87,3876.48,9332.87,3850.05Zm-29.29.18c0,40.01,30.18,65.9,65.9,65.9,35.54,0,65.72-25.89,65.72-65.9,0-40.18-30.18-66.08-65.72-66.08C9333.76,3784.15,9303.58,3810.05,9303.58,3850.23Zm205.14,63.22h31.08l-25.72-51.25c15.54-5.54,25-18.58,25-35.72,0-22.5-16.07-39.65-41.07-39.65h-50.18v126.62h28.21V3866.3h10Zm-32.68-71.43V3811.3h16.61c11.61,0,17.86,5.89,17.86,15.36,0,8.93-6.25,15.36-17.86,15.36h-16.61Zm105.14,71.43V3786.83H9552.6v126.62h28.58Zm107.39-95.54c-2.68-14.83-14.64-33.76-46.25-33.76-24.29,0-45.37,16.79-45.37,40.72,0,18.75,13.04,33.04,34.47,37.15l17.33,3.21c8.39,1.61,13.57,6.25,13.57,12.68,0,7.86-6.79,13.22-17.86,13.22-17.32,0-25.18-10.18-26.25-21.79l-25.9,6.25c1.79,17.86,16.79,40.54,51.79,40.54,30.18,0,46.79-20.18,46.79-40,0-18.04-12.5-33.58-36.61-38.04l-16.96-3.22c-8.76-1.6-12.51-6.07-12.51-12.14,0-6.97,6.79-13.57,17.33-13.57,15.36,0,20.18,10,21.07,15.89Zm36.02,32.14c0-26.43,18.93-38.39,36.61-38.39,17.5,0,36.43,11.96,36.43,38.39s-18.93,38.22-36.43,38.22C9743.52,3888.27,9724.59,3876.48,9724.59,3850.05Zm-29.29.18c0,40.01,30.18,65.9,65.9,65.9,35.54,0,65.72-25.89,65.72-65.9,0-40.18-30.18-66.08-65.72-66.08C9725.48,3784.15,9695.3,3810.05,9695.3,3850.23Zm254.26,63.22V3786.83h-28.22v76.97l-47.5-76.97h-34.29v126.62h28.04v-83.22l52.15,83.22h29.82Z" transform="translate(-9183.5 -3746.62)"/>
</svg>
